<?xml version="1.0" standalone="no"?>
<!DOCTYPE svg PUBLIC "-//W3C//DTD SVG 1.1//EN" "http://www.w3.org/Graphics/SVG/1.1/DTD/svg11.dtd" >
<svg xmlns="http://www.w3.org/2000/svg" xmlns:xlink="http://www.w3.org/1999/xlink" version="1.1">
<metadata>
Created by FontForge 20170731 at Sat Jul 22 21:00:57 2000
 By Aleksey,,,
(C)2000 Neale Davidson
</metadata>
<defs>
<font id="Powerpuff" horiz-adv-x="576" >
  <font-face 
    font-family="Powerpuff"
    font-weight="400"
    font-stretch="normal"
    units-per-em="800"
    panose-1="0 0 4 0 0 0 0 0 0 0"
    ascent="650"
    descent="-150"
    x-height="449"
    cap-height="586"
    bbox="-54 -150 668 650"
    underline-thickness="20"
    underline-position="-130"
    unicode-range="U+0020-007E"
  />
<missing-glyph horiz-adv-x="400" 
d="M50 0v650h300v-650h-300zM100 50h200v550h-200v-550z" />
    <glyph glyph-name=".notdef" horiz-adv-x="400" 
d="M50 0v650h300v-650h-300zM100 50h200v550h-200v-550z" />
    <glyph glyph-name=".null" horiz-adv-x="0" 
 />
    <glyph glyph-name="nonmarkingreturn" horiz-adv-x="501" 
 />
    <glyph glyph-name="space" unicode=" " horiz-adv-x="501" 
 />
    <glyph glyph-name="exclam" unicode="!" horiz-adv-x="369" 
d="M65 248q33 2 54 -11q15 -9 23 -24l8 -15q1 1 1 4q11 22 21 31q15 14 43 14q36 0 57 -25q18 -21 18 -52t-18 -49l-121 -121l-127 118q-25 23 -25 55q0 29 19.5 51.5t46.5 23.5zM65 277l90 282h203l-89 -280z" />
    <glyph glyph-name="quotedbl" unicode="&#x22;" 
d="M325 377q-52 -150 -269 -150l112 333h220zM588 377q-52 -150 -269 -150l112 333h220z" />
    <glyph glyph-name="numbersign" unicode="#" 
d="M259 185h44l20 64h-44zM13 39l44 146h40l20 64h-38l44 146h38l26 84h164l-26 -84h42l26 84h153q0 -14 -18 -84h59l-42 -146h-58l-18 -64h52l-42 -146h-53l-12 -39h-167l12 39h-46l-12 -39h-160l12 39h-40z" />
    <glyph glyph-name="dollar" unicode="$" 
d="M157 0l16 49h-162l54 169h148q40 13 40 27q0 10 -11 23.5t-45 34.5q-40 23 -52 33q-24 22 -24 47q0 8 2 17l19 71q19 27 33.5 35.5t46.5 9.5q10 0 44 -1h50l14 49h159l-16 -49q69 0 140 1l-28 -106h-232q-48 -13 -48 -33q0 -8 11 -18t77 -37q76 -31 105 -48
q50 -31 40 -59l-45 -122q-24 -44 -62 -44h-98l-15 -49h-161z" />
    <glyph glyph-name="percent" unicode="%" horiz-adv-x="670" 
d="M618 563q0 -40 -458 -563h-160l477 563h141zM433 249q33 1 54 -12q15 -9 23 -23.5l8 -14.5l1 3q11 22 21 31q15 14 43 14q36 0 57 -24q18 -22 18 -53t-18 -49l-121 -121l-127 118q-25 23 -25 55q0 29 19.5 52t46.5 24zM105 543q33 2 54 -11q15 -9 23 -24l8 -15q0 1 1 4
q11 22 21 31q15 14 43 14q36 0 57 -25q18 -21 18 -52t-18 -49l-121 -121l-127 118q-25 23 -25 55q0 29 19.5 51.5t46.5 23.5z" />
    <glyph glyph-name="ampersand" unicode="&#x26;" 
d="M462 246h-77l-20 -64h177l-43 -135h-175l-15 -47h-160l15 47h-147l134 468l157 -1l16 54h161l-17 -54h148l-45 -126l-142 1l-22 -73h77z" />
    <glyph glyph-name="quotesingle" unicode="'" horiz-adv-x="302" 
d="M325 377q-52 -150 -269 -150l112 333h220z" />
    <glyph glyph-name="parenleft" unicode="(" horiz-adv-x="475" 
d="M25 77l124 407q26 85 110 77h273l-45 -126h-177l-98 -300h212l-43 -135h-314q-50 0 -50 41q0 11 4 24z" />
    <glyph glyph-name="parenright" unicode=")" horiz-adv-x="475" 
d="M488 472l-117 -379q-11 -36 -35 -61q-28 -32 -64 -32h-272l41 135h171l98 300h-178l38 126h255q32 0 50 -16.5t18 -43.5q0 -14 -5 -29z" />
    <glyph glyph-name="asterisk" unicode="*" horiz-adv-x="800" 
d="M133 592l28 -96h101q-21 -13 -80 -54l31 -112l-82 86l-96 -84l40 105l-75 59h96zM353 321l28 -96h101l-80 -54l31 -112l-82 86l-96 -84l40 105l-75 59h96zM539 604l28 -96h101l-80 -54l31 -112l-82 86l-96 -84l40 105l-75 59h96z" />
    <glyph glyph-name="plus" unicode="+" 
d="M301 0h-166l41 130h-134l44 146h135l43 138h161l-41 -138h166l-42 -146h-168z" />
    <glyph glyph-name="comma" unicode="," horiz-adv-x="278" 
d="M215 0q-52 -150 -269 -150l112 333h220z" />
    <glyph glyph-name="hyphen" unicode="-" 
d="M42 130l44 146h464l-42 -146h-466z" />
    <glyph glyph-name="hyphen" unicode="&#x2010;" 
d="M42 130l44 146h464l-42 -146h-466z" />
    <glyph glyph-name="period" unicode="." horiz-adv-x="369" 
d="M65 248q33 2 54 -11q15 -9 23 -24l8 -15q1 1 1 4q11 22 21 31q15 14 43 14q36 0 57 -25q18 -21 18 -52t-18 -49l-121 -121l-127 118q-25 23 -25 55q0 29 19.5 51.5t46.5 23.5z" />
    <glyph glyph-name="slash" unicode="/" 
d="M618 563q0 -40 -458 -563h-160l477 563h141z" />
    <glyph glyph-name="zero" unicode="0" 
d="M64 0q-19 3 -32.5 18.5t-13.5 37.5l141 460q17 31 44 40q17 5 67 5h276q12 -1 23 -6q27 -10 45 -35q3 -4 3 -14q0 -78 -135 -462q-28 -44 -65 -44h-353zM326 250q41 0 71 23t30 60q0 43 -30 71t-74 28q-45 0 -75.5 -29t-32.5 -64q-1 -34 25 -60q31 -29 86 -29z" />
    <glyph glyph-name="one" unicode="1" horiz-adv-x="376" 
d="M98 0q13 45 71 271q3 15 3 30q0 45 -28 45h-126q24 71 28 77q54 23 95 45q98 52 111 93h139l-127 -561h-166zM391 561z" />
    <glyph glyph-name="two" unicode="2" 
d="M362 447h-225l28 117h380q33 -7 46 -21t13 -43q0 -10 -1 -23q-12 -43 -46 -133q-25 -55 -146 -54q-35 0 -54 -13q-14 -10 -21 -30q-5 -16 -9 -32h211q-24 -71 -70 -215h-468l67 219q32 81 67 107q25 18 78 20h117q72 24 72 55q0 15 -18 31q-10 7 -21 15z" />
    <glyph glyph-name="three" unicode="3" 
d="M339 477h-178l31 82l421 1l-37 -130q-11 -38 -27 -53.5t-57 -25.5q60 -35 60 -87q0 -24 -14 -49l-56 -171q-25 -44 -62 -44h-420l65 218h148q25 0 42.5 12.5t17.5 28.5q0 32 -62 42l21 75l70 3q75 13 75 51q0 27 -38 47z" />
    <glyph glyph-name="four" unicode="4" 
d="M70 222l102 338h161l-76 -240h141l79 243h141q-2 -49 -145 -563h-167l31 102h-164q-51 0 -81.5 22.5t-30.5 58.5q0 19 9 39z" />
    <glyph glyph-name="five" unicode="5" 
d="M576 430h-244q-18 -44 -30 -79h190q60 -35 60 -87q0 -24 -14 -49l-56 -171q-25 -44 -62 -44h-420l65 218h148q25 0 42.5 12.5t17.5 28.5q0 32 -62 42h-111l82 258l431 1z" />
    <glyph glyph-name="six" unicode="6" 
d="M613 560l-37 -130h-185q-43 0 -61 -20q-11 -12 -28 -59q84 -5 141 -31q80 -36 80 -104q0 -23 -8 -48l-51 -168h-396q-16 0 -35.5 20.5t-14.5 35.5l141 460q2 5 12 17q15 19 40 25q14 3 47 3zM256 84q41 0 71 22.5t30 60.5q0 43 -30 71t-74 28q-45 0 -75.5 -29.5
t-32.5 -63.5q-1 -35 25 -60q31 -29 86 -29z" />
    <glyph glyph-name="seven" unicode="7" 
d="M86 561h406q19 -3 32.5 -18.5t13.5 -37.5l-149 -504h-295q42 141 75 270q3 15 3 30q0 45 -28 45h-126q29 91 68 215zM55 458z" />
    <glyph glyph-name="eight" unicode="8" 
d="M64 0q-19 3 -32.5 18.5t-13.5 37.5l40 135q39 79 106 87q-34 4 -48 36q-7 19 -6 39l22 75l27 88q17 31 44 40q17 5 67 5h261q41 5 68 -32q1 -1 1 -6q0 -27 -38 -175q-4 -17 -30 -40q-29 -26 -57 -32q22 -12 37 -42t10 -47l-40 -143q-28 -44 -65 -44h-353zM600 414z
M45 144zM256 84q41 0 71 22.5t30 60.5q0 43 -30 71t-74 28q-45 0 -75.5 -29.5t-32.5 -63.5q-1 -35 25 -60q31 -29 86 -29zM329 313q41 0 71 22.5t30 60.5q0 43 -30 71t-74 28q-45 0 -75.5 -29.5t-32.5 -63.5q-1 -35 25 -60q31 -29 86 -29z" />
    <glyph glyph-name="nine" unicode="9" 
d="M103 393l31 103q39 70 91 65h325q20 -3 35 -19t15 -37l-128 -460q-17 -31 -44 -40q-17 -5 -67 -5h-361l47 130l193 1q40 0 53 19q3 3 23 60h-131q-90 0 -90 120q0 36 8 63zM225 561zM303 273q41 0 71 23t30 60q0 43 -30 71t-74 28q-45 0 -75.5 -29t-32.5 -64
q-1 -34 25 -59q31 -30 86 -30z" />
    <glyph glyph-name="colon" unicode=":" horiz-adv-x="369" 
d="M65 248q33 2 54 -11q15 -9 23 -24l8 -15q1 1 1 4q11 22 21 31q15 14 43 14q36 0 57 -25q18 -21 18 -52t-18 -49l-121 -121l-127 118q-25 23 -25 55q0 29 19.5 51.5t46.5 23.5zM68 506q33 1 54 -12q15 -9 23 -23.5t7 -14.5q1 0 2 3q11 23 20 31q16 15 44 15q36 0 55 -23.5
t19 -54.5t-17 -48l-121 -121l-128 117q-24 23 -24 56q0 29 19 51.5t47 23.5z" />
    <glyph glyph-name="semicolon" unicode=";" horiz-adv-x="369" 
d="M68 506q33 1 54 -12q15 -9 23 -23.5t7 -14.5q1 0 2 3q11 23 20 31q16 15 44 15q36 0 55 -23.5t19 -54.5t-17 -48l-121 -121l-128 117q-24 23 -24 56q0 29 19 51.5t47 23.5zM215 0q-52 -150 -269 -150l112 333h220z" />
    <glyph glyph-name="less" unicode="&#x3c;" 
d="M51 160l44 146l492 89l-42 -146l-152 -27l128 -37l-42 -146z" />
    <glyph glyph-name="equal" unicode="=" 
d="M79 249l44 146h464l-42 -146h-466zM13 39l44 146h464l-42 -146h-466z" />
    <glyph glyph-name="greater" unicode="&#x3e;" 
d="M79 249l44 146l431 -105l-42 -146l-499 -105l44 146l153 32z" />
    <glyph glyph-name="question" unicode="?" 
d="M126 419l45 141h360q16 -1 31 -5q34 -10 52 -35q7 -9 7 -29q0 -50 -36 -145q-15 -68 -98 -68h-403l24 70h311q28 0 43 11t15 27q0 20 -23 33h-328zM65 248q33 2 54 -11q15 -9 23 -24l8 -15q1 1 1 4q11 22 21 31q15 14 43 14q36 0 57 -25q18 -21 18 -52t-18 -49l-121 -121
l-127 118q-25 23 -25 55q0 29 19.5 51.5t46.5 23.5z" />
    <glyph glyph-name="at" unicode="@" 
d="M223 370q33 1 54 -12q15 -9 23 -23.5t7 -14.5q1 0 2 3q11 23 20 31q16 15 44 15q36 0 55 -23.5t19 -54.5t-17 -49l-121 -120l-128 117q-24 23 -24 56q0 29 19 51.5t47 23.5zM64 0q-19 3 -32.5 18.5t-13.5 37.5l141 460q17 31 44 40q17 5 67 5l261 -1q16 -1 31 -5
q34 -10 52 -35q3 -4 3 -14q0 -78 -135 -462q-28 -44 -65 -44h-353z" />
    <glyph glyph-name="A" unicode="A" 
d="M313 0l43 147l-110 -1l-52 -146h-194l171 560h360q16 -1 31 -5q34 -10 52 -35q3 -4 3 -15q0 -83 -135 -505h-169zM317 225q40 0 70.5 22.5t30.5 60.5q0 43 -30 71t-74 28q-45 0 -77 -31q-30 -27 -31 -62q-2 -35 25 -60q30 -29 86 -29z" />
    <glyph glyph-name="B" unicode="B" 
d="M531 561q41 5 68 -32q1 -1 1 -6q0 -28 -38 -175q-4 -17 -30 -40q-29 -26 -57 -32q20 -11 34 -36t14 -45q0 -4 -1 -8l-40 -143q-28 -44 -65 -44h-417l171 559zM312 284q41 0 71 22.5t30 60.5q0 43 -30 71t-74 28q-45 0 -75.5 -29.5t-32.5 -63.5q-1 -35 25 -60
q31 -29 86 -29zM230 47q41 0 71 22.5t30 60.5q0 43 -30 71t-74 28q-45 0 -75.5 -29.5t-32.5 -63.5q-1 -35 25 -60q31 -29 86 -29zM600 414z" />
    <glyph glyph-name="C" unicode="C" 
d="M185 188q-1 -35 25 -60q31 -29 86 -29l198 -1l-30 -98h-396q-20 3 -35 19t-15 37l141 460q17 31 44 40q17 5 67 5l343 -1l-78 -280l-242 1q-45 0 -76 -29.5t-32 -63.5z" />
    <glyph glyph-name="D" unicode="D" 
d="M508 82q-14 -46 -87 -82h-421l171 560h360q16 -1 31 -5q34 -10 52 -35q3 -4 3 -15q0 -73 -109 -423zM326 250q41 0 71 23t30 60q0 43 -30 71t-74 28q-45 0 -75.5 -29t-32.5 -64q-1 -34 25 -60q31 -29 86 -29z" />
    <glyph glyph-name="E" unicode="E" 
d="M462 246h-114l-35 -111h212l-43 -135h-482l171 560l462 1l-45 -126h-177l-38 -119h111z" />
    <glyph glyph-name="F" unicode="F" 
d="M0 0l171 560l462 1l-69 -204h-137l-37 -129h118l-30 -103h-131l-41 -125h-306z" />
    <glyph glyph-name="G" unicode="G" 
d="M390 175q5 20 -11 47q19 2 44 2q16 1 42 0q27 -1 36 -1q9 -20 9 -41q0 -19 -18 -83l-28 -99h-396q-20 3 -35 19t-15 37l141 460q17 31 44 40q17 5 67 5l343 -1l-78 -280l-242 1q-45 0 -76 -29.5t-32 -63.5q-2 -36 26 -62q31 -32 85 -27q31 2 65.5 29t28.5 47z" />
    <glyph glyph-name="H" unicode="H" 
d="M306 0l41 127h-147l-40 -127h-160l172 560h161l-90 -284h154l80 287h141q0 -40 -145 -563h-167z" />
    <glyph glyph-name="I" unicode="I" 
d="M487 0h-487l58 183h482zM184 586q51 2 84 -18q23 -14 37 -39q12 -21 11 -21q1 1 2 5q17 35 32 49q25 22 68 22q56 0 88 -39q29 -33 29 -82q0 -48 -28 -76l-189 -189l-199 184q-38 36 -38 87q0 45 30 80t73 37z" />
    <glyph glyph-name="J" unicode="J" 
d="M623 561l-131 -499q-38 -62 -75 -62h-353q-19 3 -32.5 18.5t-13.5 37.5l59 194q127 0 136 1q36 5 54 36l84 274h272z" />
    <glyph glyph-name="K" unicode="K" 
d="M171 560l154 -1l-82 -283h154l92 283h136l-86 -353q-23 -60 -60 -60h-39l68 -146h-101l-70 146l-124 1l-49 -147h-164z" />
    <glyph glyph-name="L" unicode="L" 
d="M64 0q-19 3 -32.5 18.5t-13.5 37.5l149 504h295q-42 -141 -75 -270q-3 -16 -3 -31q0 -44 28 -44h126q-24 -71 -56 -171q-6 -44 -43 -44h-375zM122 396zM326 561z" />
    <glyph glyph-name="M" unicode="M" 
d="M131 0h-131l172 560h161l6 -78h73l65 81h141q0 -40 -145 -563h-117l63 224l-80 -80h-75l-51 80z" />
    <glyph glyph-name="N" unicode="N" 
d="M286 269l-92 -269h-194l171 560h360q16 -1 31 -5q34 -10 52 -35q3 -4 3 -16q0 -86 -125 -504h-143l63 229q3 8 3 14q0 23 -41 26q1 0 -88 0z" />
    <glyph glyph-name="O" unicode="O" 
d="M64 0q-19 3 -32.5 18.5t-13.5 37.5l141 460q17 31 44 40q17 5 67 5h276q12 -1 23 -6q27 -10 45 -35q3 -4 3 -14q0 -78 -135 -462q-28 -44 -65 -44h-353zM326 250q41 0 71 23t30 60q0 43 -30 71t-74 28q-45 0 -75.5 -29t-32.5 -64q-1 -34 25 -60q31 -29 86 -29z" />
    <glyph glyph-name="P" unicode="P" 
d="M0 0l171 560h360q16 -1 31 -5q34 -10 52 -35q4 -6 4 -20q0 -69 -79 -294q-23 -60 -60 -60h-182l-52 -146h-245zM291 205q40 0 70.5 23t30.5 60q0 43 -30 71t-74 28q-45 0 -76 -29t-32 -64q-1 -34 25 -60q31 -29 86 -29z" />
    <glyph glyph-name="Q" unicode="Q" 
d="M419 -101l-210 3l36 98h-182q-19 3 -32 18.5t-13 37.5l141 460q17 31 44 40q17 5 67 5l261 -1q19 -1 33 -7q34 -14 39 -48zM326 250q41 0 71 23t30 60q0 43 -30 71t-74 28q-45 0 -75.5 -29t-32.5 -64q-1 -34 25 -60q31 -29 86 -29z" />
    <glyph glyph-name="R" unicode="R" 
d="M440 146l68 -146h-101l-70 146h-40l-52 -146h-245l171 560h360q16 -1 31 -5q34 -10 52 -35q4 -6 4 -20q0 -69 -79 -294q-23 -60 -60 -60h-39zM291 205q40 0 70.5 23t30.5 60q0 43 -30 71t-74 28q-45 0 -76 -29t-32 -64q-1 -34 25 -60q31 -29 86 -29z" />
    <glyph glyph-name="S" unicode="S" 
d="M156 518l24 34q13 13 34 13q9 0 22 -2h391l-28 -106h-232q-47 -13 -47 -33q0 -8 9 -17q63 -42 127 -85q97 -68 82 -107l-56 -171q-25 -44 -62 -44h-420l65 218h148q40 13 40 27q0 10 -10 23q-33 35 -67 70q-43 49 -43 87q0 11 4 22zM122 396z" />
    <glyph glyph-name="T" unicode="T" 
d="M148 0l86 256h-166l103 304l449 1l-98 -305h-141l-79 -256h-154z" />
    <glyph glyph-name="U" unicode="U" 
d="M18 56l154 504h161l-38 -123l144 -3l38 129h141q0 -40 -136 -519q-28 -44 -65 -44h-353q-19 3 -32.5 18.5t-13.5 37.5z" />
    <glyph glyph-name="V" unicode="V" 
d="M346 0h-142l-85 386l53 174h161l-38 -125l144 -1l38 129h141l-56 -189z" />
    <glyph glyph-name="W" unicode="W" 
d="M487 563h131l-172 -560h-161l-6 78h-73l-65 -81h-141q0 40 145 563h117l-63 -224l80 80h75l51 -80z" />
    <glyph glyph-name="X" unicode="X" 
d="M164 278q-34 4 -48 36q-7 19 -6 39l62 207h161l-63 -195h154l63 199l131 -1l-56 -215q-4 -17 -30 -40q-29 -26 -57 -32q24 -13 40.5 -37.5t11.5 -40.5l-54 -198h-167l41 127h-147l-40 -127h-160l58 191q39 79 106 87z" />
    <glyph glyph-name="Y" unicode="Y" 
d="M618 564l-76 -253q-10 -31 -64 -54l-97 -1l-79 -256h-154l86 256l-117 1q-37 0 -37 30q0 11 7 24l85 249h161l-38 -123l144 -3l38 129z" />
    <glyph glyph-name="Z" unicode="Z" 
d="M53 182q44 66 98 94l249 175l-263 -4l28 117l462 -1l-24 -86q-14 -36 -42 -58l-218 -204h195q-24 -71 -70 -215h-468z" />
    <glyph glyph-name="bracketleft" unicode="[" horiz-adv-x="475" 
d="M212 135h212l-43 -135h-381l171 560l361 1l-45 -126h-177z" />
    <glyph glyph-name="backslash" unicode="\" 
d="M473 0h-167l-134 560h161q0 -40 140 -560z" />
    <glyph glyph-name="bracketright" unicode="]" horiz-adv-x="475" 
d="M212 135l98 300h-178l38 126h335l-162 -561h-343l41 135h171z" />
    <glyph glyph-name="asciicircum" unicode="^" 
d="M429 428h-113l-32 -47h-174l286 183l190 -183h-176z" />
    <glyph glyph-name="underscore" unicode="_" 
d="M525 135l-43 -135h-482l41 135h484z" />
    <glyph glyph-name="grave" unicode="`" horiz-adv-x="302" 
d="M280 226q-64 -3 -115 27q-59 34 -59 95q0 21 8 45l54 167h220z" />
    <glyph glyph-name="a" unicode="a" horiz-adv-x="461" 
d="M250 0l35 118l-88 -1l-42 -117h-155l137 448h288q13 -1 24 -4q28 -8 42 -28q2 -3 2 -12q0 -67 -107 -404h-136zM253 180q33 0 57 18t24 48q0 35 -24 57t-59 22q-36 0 -60.5 -23t-25.5 -51q-2 -28 20 -48q24 -23 68 -23z" />
    <glyph glyph-name="b" unicode="b" horiz-adv-x="461" 
d="M425 449q33 4 54 -26q6 -8 -29 -145q-4 -13 -26 -32.5t-44 -24.5q18 -10 29.5 -33.5t8.5 -37.5l-32 -115q-23 -35 -52 -35h-334l137 447zM250 227q32 0 56.5 18.5t24.5 47.5q0 35 -24 57.5t-60 22.5t-60.5 -23.5t-25.5 -51.5q-1 -27 20 -48q25 -23 69 -23zM184 37
q33 0 57 18.5t24 48.5q0 34 -24 56.5t-59 22.5q-36 0 -60.5 -23.5t-26.5 -50.5q-1 -28 20 -48q25 -24 69 -24zM480 331z" />
    <glyph glyph-name="c" unicode="c" horiz-adv-x="461" 
d="M148 150q-1 -28 20 -48q24 -23 69 -23h157l-23 -79h-317q-15 3 -27.5 15.5t-12.5 29.5l113 368q14 25 36 32q13 4 53 4l274 -1l-62 -224h-194q-36 0 -60.5 -23t-25.5 -51z" />
    <glyph glyph-name="d" unicode="d" horiz-adv-x="461" 
d="M406 66q-11 -37 -69 -66h-337l137 448h288q13 -1 24 -4q28 -8 42 -28q2 -3 2 -12q0 -59 -87 -338zM261 200q32 0 56.5 18.5t24.5 47.5q0 35 -24 57.5t-59 22.5q-37 0 -61.5 -23.5t-25.5 -51.5q-1 -27 20 -48q25 -23 69 -23z" />
    <glyph glyph-name="e" unicode="e" horiz-adv-x="461" 
d="M370 197h-92l-28 -89h170l-34 -108h-386l137 448l369 1l-36 -101h-141l-31 -95h89z" />
    <glyph glyph-name="f" unicode="f" horiz-adv-x="461" 
d="M0 0l137 448l369 1l-55 -163h-109l-30 -104h94l-24 -82h-104l-33 -100h-245z" />
    <glyph glyph-name="g" unicode="g" horiz-adv-x="461" 
d="M312 140q4 16 -9 38h98q7 -15 7 -32q0 -15 -14 -67l-23 -79h-317q-15 3 -27.5 15.5t-12.5 29.5l113 368q14 25 36 32q13 4 53 4l274 -1l-62 -224h-194q-36 0 -60.5 -23t-25.5 -51t20 -50q26 -25 69 -21q24 2 52 23.5t23 37.5z" />
    <glyph glyph-name="h" unicode="h" horiz-adv-x="461" 
d="M245 0l33 102h-118l-32 -102h-128l138 448h128l-72 -227h124l64 229h112q0 -32 -116 -450h-133z" />
    <glyph glyph-name="i" unicode="i" horiz-adv-x="461" 
d="M390 0h-390l46 146h386zM147 469q41 1 68 -15q18 -11 28 -29.5l10 -18.5q1 1 1 4q14 28 26 39q20 18 54 18q45 0 71 -31q23 -27 23 -65q0 -39 -22 -61l-152 -152l-159 148q-30 28 -30 69q0 36 24 64t58 30z" />
    <glyph glyph-name="j" unicode="j" horiz-adv-x="461" 
d="M498 449l-104 -399q-31 -50 -60 -50h-283q-15 2 -26 14.5t-11 30.5l48 155q101 0 109 1q29 4 43 29l67 219h217z" />
    <glyph glyph-name="k" unicode="k" horiz-adv-x="461" 
d="M137 448l123 -1l-66 -226h124l73 226h109l-69 -282q-18 -48 -48 -48h-31l54 -117h-80l-56 117l-100 1l-39 -118h-131z" />
    <glyph glyph-name="l" unicode="l" horiz-adv-x="461" 
d="M51 0q-15 2 -26 14.5t-11 30.5l120 403h236q-34 -113 -60 -216q-3 -12 -3 -24q0 -36 23 -36h100q-18 -57 -44 -137q-5 -35 -35 -35h-300zM98 317zM261 449z" />
    <glyph glyph-name="m" unicode="m" horiz-adv-x="461" 
d="M105 0h-105l138 448h128l5 -62h59l52 64h112q0 -32 -116 -450h-93l50 179l-64 -64h-60l-41 64z" />
    <glyph glyph-name="n" unicode="n" horiz-adv-x="461" 
d="M229 215l-74 -215h-155l137 448h288q13 -1 24 -4q28 -8 42 -28q3 -3 3 -13q0 -69 -100 -403h-115l51 183q2 7 2 12q0 17 -33 20q1 0 -70 0z" />
    <glyph glyph-name="o" unicode="o" horiz-adv-x="461" 
d="M51 0q-15 2 -26 14.5t-11 30.5l113 368q14 25 36 32q13 4 53 4h221q9 -1 18 -5q22 -8 36 -28q2 -3 2 -11q0 -63 -107 -370q-23 -35 -52 -35h-283zM261 200q32 0 56.5 18.5t24.5 47.5q0 35 -24 57.5t-59 22.5q-37 0 -61.5 -23.5t-25.5 -51.5q-1 -27 20 -48q25 -23 69 -23z
" />
    <glyph glyph-name="p" unicode="p" horiz-adv-x="461" 
d="M0 0l137 448h288q13 -1 24 -4q28 -8 42 -28q3 -5 3 -16q0 -55 -63 -235q-18 -48 -48 -48h-145l-42 -117h-196zM233 164q32 0 56.5 18.5t24.5 47.5q0 35 -24 57.5t-60 22.5t-60.5 -23.5t-25.5 -51.5q-1 -27 20 -48q25 -23 69 -23z" />
    <glyph glyph-name="q" unicode="q" horiz-adv-x="461" 
d="M335 -81l-168 3l29 78h-146q-36 6 -36 45l113 368q14 25 36 32q13 4 53 4l209 -1q15 -1 26 -6q27 -11 31 -38zM261 200q32 0 56.5 18.5t24.5 47.5q0 35 -24 57.5t-59 22.5q-37 0 -61.5 -23.5t-25.5 -51.5q-1 -27 20 -48q25 -23 69 -23z" />
    <glyph glyph-name="r" unicode="r" horiz-adv-x="461" 
d="M352 117l54 -117h-80l-56 117h-32l-42 -117h-196l137 448h288q13 -1 24 -4q28 -8 42 -28q3 -5 3 -16q0 -55 -63 -235q-18 -48 -48 -48h-31zM233 164q32 0 56.5 18.5t24.5 47.5q0 35 -24 57.5t-60 22.5t-60.5 -23.5t-25.5 -51.5q-1 -27 20 -48q25 -23 69 -23z" />
    <glyph glyph-name="s" unicode="s" horiz-adv-x="461" 
d="M125 414q9 14 19 28q10 10 27 10q8 0 18 -2h313l-23 -84h-185q-38 -10 -38 -27q0 -6 7 -13q47 -32 95 -63q74 -51 74 -82q0 -5 -2 -9q-18 -57 -44 -137q-20 -35 -50 -35h-336l52 174h118q33 11 33 22q0 12 -25 37q-38 38 -46 48q-25 32 -25 59q0 9 3 18zM98 317z" />
    <glyph glyph-name="t" unicode="t" horiz-adv-x="461" 
d="M118 0l69 205h-133l83 243l359 1l-78 -244h-113l-63 -205h-124z" />
    <glyph glyph-name="u" unicode="u" horiz-adv-x="461" 
d="M14 45l124 403h128l-30 -98l115 -3l31 103h112q0 -32 -108 -415q-23 -35 -52 -35h-283q-15 2 -26 14.5t-11 30.5z" />
    <glyph glyph-name="v" unicode="v" horiz-adv-x="461" 
d="M277 0h-114l-68 309l43 139h128l-30 -100l115 -1l31 103h112l-44 -151z" />
    <glyph glyph-name="w" unicode="w" horiz-adv-x="461" 
d="M390 450h104l-137 -448h-129l-5 63h-58l-52 -65h-113q0 32 116 450h94l-51 -179l64 64h60l41 -64z" />
    <glyph glyph-name="x" unicode="x" horiz-adv-x="461" 
d="M131 222q-27 4 -38 29q-6 15 -5 31l50 166h128l-50 -156h123l51 159l104 -1l-44 -172q-4 -13 -26 -32.5t-44 -24.5q19 -11 32 -30.5t10 -32.5l-44 -158h-133l33 102h-118l-32 -102h-128l46 153q31 63 85 69z" />
    <glyph glyph-name="y" unicode="y" horiz-adv-x="461" 
d="M494 451l-61 -202q-7 -25 -51 -43l-77 -1l-63 -205h-124l69 205l-93 1q-30 0 -30 24q0 8 5 19l69 199h128l-30 -98l115 -3l31 103z" />
    <glyph glyph-name="z" unicode="z" horiz-adv-x="461" 
d="M42 146q36 52 79 75l199 140l-210 -3l22 93l370 -1l-20 -68q-11 -30 -33 -47l-175 -163h156q-18 -57 -56 -172h-374z" />
    <glyph glyph-name="braceleft" unicode="{" horiz-adv-x="475" 
d="M212 135h212l-43 -135h-381l171 560l361 1l-45 -126h-177z" />
    <glyph glyph-name="bar" unicode="|" horiz-adv-x="302" 
d="M112 -150h-160l247 800h161z" />
    <glyph glyph-name="braceright" unicode="}" horiz-adv-x="475" 
d="M212 135l98 300h-178l38 126h335l-162 -561h-343l41 135h171z" />
    <glyph glyph-name="asciitilde" unicode="~" 
d="M347 409q28 -19 82 -38q62 -22 104 -22q46 0 55 28l63 183q-59 -50 -125 -50q-56 0 -129 39t-133 39q-49 0 -100 -24l-79 -181q2 1 86 35q51 21 86 21q46 0 90 -30z" />
  </font>
</defs>
</svg>
